# xmcd CD database file
#
# Track frame offsets:
#	150
#	13852
#	37005
#	49902
#	65992
#	112175
#	124537
#	137617
#	162675
#	182357
#	206827
#	219732
#	242900
#	252240
#	281235
#	305390
#
# Disc length: 4356 seconds
#
# Revision: 5
# Processed by: cddbd v1.5PL3 Copyright (c) Steve Scherf et al.
# Submitted via: CDex 1.51
#
DISCID=02110210
DTITLE=John Lee Hooker - The Best Of John Lee Hooker - 1965 To 1974
DYEAR=1992
DGENRE=Blues
TTITLE0=One Bourbon, One Scotch, One Beer
TTITLE1=Decoration Day
TTITLE2=Back Biters And Syndicators
TTITLE3=Doin' The Shout
TTITLE4=Never Get Out Of These Blues Alive
TTITLE5=I'm In The Mood
TTITLE6=Mr. Lucky
TTITLE7=I'm Bad Like Jesse James
TTITLE8=Shake It Baby
TTITLE9=Bluebird
TTITLE10=The Motor City Is Burning
TTITLE11=It Serves You Right To Suffer
TTITLE12=Think Twice Before You Go
TTITLE13=House Rent Boogie
TTITLE14=The Waterfront
TTITLE15=Bang, Bang, Bang, Bang
EXTD=YEAR: 1992
EXTT0=
EXTT1=
EXTT2=
EXTT3=
EXTT4=
EXTT5=
EXTT6=
EXTT7=
EXTT8=
EXTT9=
EXTT10=
EXTT11=
EXTT12=
EXTT13=
EXTT14=
EXTT15=
PLAYORDER=
